<?xml version="1.0" encoding="UTF-8" standalone="no"?>
<!-- Created with Inkscape (http://www.inkscape.org/) -->

<svg
   width="210mm"
   height="90mm"
   viewBox="0 0 210 90"
   version="1.1"
   id="svg13079"
   sodipodi:docname="LOGO_prata.svg"
   inkscape:export-filename="/home/gilvan/MEGA/TINELLUS/RENE/ONIX/LOGOS/logo_preto.png"
   inkscape:export-xdpi="114.269"
   inkscape:export-ydpi="114.269"
   inkscape:version="1.1.2 (0a00cf5339, 2022-02-04)"
   xmlns:inkscape="http://www.inkscape.org/namespaces/inkscape"
   xmlns:sodipodi="http://sodipodi.sourceforge.net/DTD/sodipodi-0.dtd"
   xmlns:xlink="http://www.w3.org/1999/xlink"
   xmlns="http://www.w3.org/2000/svg"
   xmlns:svg="http://www.w3.org/2000/svg">
  <sodipodi:namedview
     id="namedview13081"
     pagecolor="#ffffff"
     bordercolor="#666666"
     borderopacity="1.0"
     inkscape:pageshadow="2"
     inkscape:pageopacity="0.0"
     inkscape:pagecheckerboard="0"
     inkscape:document-units="mm"
     showgrid="false"
     inkscape:zoom="0.33512179"
     inkscape:cx="186.49936"
     inkscape:cy="392.39466"
     inkscape:window-width="1360"
     inkscape:window-height="704"
     inkscape:window-x="0"
     inkscape:window-y="27"
     inkscape:window-maximized="1"
     inkscape:current-layer="layer1" />
  <defs
     id="defs13076">
    <linearGradient
       inkscape:collect="always"
       xlink:href="#linearGradient12098"
       id="linearGradient12100"
       x1="168.19711"
       y1="265.71964"
       x2="168.92151"
       y2="167.58789"
       gradientUnits="userSpaceOnUse"
       gradientTransform="matrix(0.26458333,0,0,0.26458333,-5.9507968,-11.680031)" />
    <linearGradient
       inkscape:collect="always"
       id="linearGradient12098">
      <stop
         style="stop-color:#ff6b00;stop-opacity:1;"
         offset="0"
         id="stop12094" />
      <stop
         style="stop-color:#ff6b00;stop-opacity:0.07071265"
         offset="1"
         id="stop12096" />
    </linearGradient>
  </defs>
  <g
     inkscape:label="Camada 1"
     inkscape:groupmode="layer"
     id="layer1">
    <path
       d="M 50.962824,17.611087 67.445734,34.25807 V 57.789119 L 50.832014,74.45611 27.163941,74.38751 10.482001,57.789139 V 34.258057 l 16.61655,-16.727038 23.861433,0.08 z m -1.060583,1.346507 -5.67817,11.541104 c -0.71937,0.04859 -9.99723,0.823341 -10.76495,-0.317339 0,0 -5.7066,-11.223765 -5.7066,-11.223765 l 3.92951,11.898456 c 0.76486,0.237286 -7.44389,7.801752 -7.52351,7.999012 l -12.02738,-3.942323 11.18007,5.666203 0.13086,10.809257 -11.31086,5.74052 12.07287,-3.89087 c 0.10528,0.23729 8.20024,7.65023 7.47518,7.95042 l -3.92951,11.898461 5.70945,-11.646891 10.7621,0.10585 5.95682,11.541111 -3.92951,-11.898461 0.21893,-0.78904 7.250553,-7.14709 12.07857,3.87658 -11.31086,-5.74053 0.1279,-10.812103 11.1829,-5.666203 -12.07287,3.890859 c -0.10514,-0.23727 -8.200243,-7.650228 -7.475183,-7.947549 0.22179,-2.026909 4.779673,-11.178026 3.65086,-11.898452 z"
       id="path6"
       style="fill:#ececec;stroke-width:0.285107"
       inkscape:export-filename="/home/gilvan/MEGA/TINELLUS/RENE/ONIX/LOGOS/logo_prata2.png"
       inkscape:export-xdpi="114.269"
       inkscape:export-ydpi="114.269" />
    <polygon
       points="431.69,52.99 533.56,130.72 533.56,51.99 555.53,51.99 555.53,174.57 453.66,97.84 453.66,175.57 431.69,175.57 "
       id="polygon8"
       transform="matrix(0.28433532,0,0,0.28588324,-10.655489,7.510824)"
       style="fill:#ececec"
       inkscape:export-filename="/home/gilvan/MEGA/TINELLUS/RENE/ONIX/LOGOS/logo_prata2.png"
       inkscape:export-xdpi="114.269"
       inkscape:export-ydpi="114.269" />
    <path
       d="m 89.026794,22.459659 c 21.859686,-2.175576 26.724676,30.18641 5.69239,34.77198 -24.44147,5.32887 -29.96894,-32.359118 -5.69239,-34.77198 z m 0.28149,6.263711 c -14.51248,1.698146 -12.1923,24.280059 2.73246,22.681969 14.924756,-1.59809 12.442516,-24.457312 -2.73246,-22.681969 z"
       id="path10"
       style="fill:#ececec;stroke-width:0.285107"
       inkscape:export-filename="/home/gilvan/MEGA/TINELLUS/RENE/ONIX/LOGOS/logo_prata2.png"
       inkscape:export-xdpi="114.269"
       inkscape:export-ydpi="114.269" />
    <polygon
       points="733.3,176.57 706.84,176.57 672.87,132.71 638.38,176.07 611.46,176.56 658.2,114.27 610.46,51.99 637.92,51.99 672.87,95.85 706.84,51.99 734.3,51.99 686.69,114.29 "
       id="polygon12"
       transform="matrix(0.28433532,0,0,0.28588324,-10.655489,7.510824)"
       style="fill:#ececec"
       inkscape:export-filename="/home/gilvan/MEGA/TINELLUS/RENE/ONIX/LOGOS/logo_prata2.png"
       inkscape:export-xdpi="114.269"
       inkscape:export-ydpi="114.269" />
    <rect
       class="cls-1"
       x="152.69518"
       y="22.373903"
       width="6.2468476"
       height="35.329449"
       id="rect14"
       style="fill:#ececec;stroke-width:0.285107"
       inkscape:export-filename="/home/gilvan/MEGA/TINELLUS/RENE/ONIX/LOGOS/logo_prata2.png"
       inkscape:export-xdpi="114.269"
       inkscape:export-ydpi="114.269" />
    <path
       d="m 52.299204,40.201569 c 0.0824,0.122907 0.53739,0.134416 0.45777,0.534607 l -0.0171,10.777803 -8.151903,8.19056 -10.96113,-0.0658 -8.37652,-8.40496 c 0,0 0.12224,-10.632001 0.12224,-10.632001 0.27013,-0.840504 7.43537,-7.97615 8.26563,-8.187705 12.76382,0.28017 9.45131,-2.304209 18.660923,7.784602 z"
       id="path44"
       style="fill:#ffb200;fill-opacity:1;stroke-width:0.285107"
       inkscape:export-filename="/home/gilvan/MEGA/TINELLUS/RENE/ONIX/LOGOS/logo_prata2.png"
       inkscape:export-xdpi="114.269"
       inkscape:export-ydpi="114.269" />
    <path
       style="fill:#000000;stroke-width:0.0740018"
       d="m 29.538981,52.386809 c -0.22635,-0.0885 -0.29051,-0.28163 -0.28986,-0.87253 l 0.001,-0.59362 0.20149,0.23653 c 0.32208,0.37811 0.52133,0.42632 1.93276,0.46766 l 1.29152,0.0378 0.0225,0.27121 c 0.039,0.46975 -0.092,0.50887 -1.68098,0.50207 -0.75204,-0.003 -1.41717,-0.0253 -1.47805,-0.0492 z m 16.01673,-0.145 c -0.09,-0.11495 -0.14714,-0.28055 -0.13454,-0.38956 l 0.022,-0.18956 1.32843,-0.0371 c 1.43819,-0.0402 1.63552,-0.0898 1.94921,-0.49084 l 0.15413,-0.19701 v 0.60364 c 0,0.91928 0.0362,0.90045 -1.72898,0.90045 h -1.43377 z m -15.66082,-1.2655 c -0.16221,-0.19189 -0.32672,-0.59617 -0.43027,-1.0574 -0.0504,-0.22446 -0.12351,-0.50828 -0.16265,-0.63073 -0.11305,-0.35439 -0.23212,-4.709071 -0.13835,-5.05926 0.0572,-0.213757 0.24036,-0.457266 0.66987,-0.890863 0.3251,-0.328194 0.59109,-0.634635 0.59109,-0.680982 0,-0.05854 -0.29188,-0.08426 -0.95657,-0.08426 h -0.95657 l -0.0827,-0.308628 c -0.0981,-0.366104 -0.0387,-0.772388 0.12195,-0.834353 0.14996,-0.05783 1.09011,-0.05726 1.24055,0.0011 0.0642,0.02471 0.11673,0.108556 0.11673,0.186235 0,0.07758 0.0636,0.195953 0.14138,0.26289 0.15086,0.129871 0.63391,0.319101 0.81931,0.32095 0.0707,0.0011 0.29876,-0.375893 0.61749,-1.019167 0.93649,-1.890165 1.47782,-2.550176 2.2595,-2.754855 0.6217,-0.162803 2.0988,-0.22947 5.10923,-0.23065 3.00696,-0.0013 5.00012,0.08085 5.55506,0.228774 0.79456,0.211712 1.24397,0.767445 2.28932,2.830928 0.53046,1.047102 0.52909,1.04612 1.10286,0.798833 0.25092,-0.10813 0.36231,-0.206796 0.4194,-0.371462 0.0934,-0.269526 0.23161,-0.312293 0.91324,-0.282739 l 0.51508,0.0223 0.0828,0.257633 c 0.0618,0.192246 0.061,0.33351 -0.003,0.556517 l -0.0859,0.298894 -0.8825,0.01947 c -0.48537,0.01138 -0.92809,0.03637 -0.9838,0.05683 -0.0675,0.02487 0.0945,0.242459 0.48649,0.652909 0.83751,0.877134 0.82886,0.839695 0.75005,3.245506 -0.0882,2.69289 -0.30553,3.93548 -0.78066,4.46333 -0.11305,0.12575 -0.57834,0.13243 -9.17384,0.13243 -8.53249,0 -9.06101,-0.007 -9.16444,-0.12987 z m 13.66634,-0.41527 c 0,-0.055 -0.0523,-0.20521 -0.11617,-0.33392 l -0.11616,-0.234 h -4.25829 -4.25829 l -0.13567,0.25338 c -0.0746,0.13939 -0.11348,0.28964 -0.0862,0.33392 0.0348,0.0564 1.3827,0.0806 4.51013,0.0806 3.68957,0 4.46062,-0.0173 4.46062,-0.0999 z m -9.74177,-0.39102 c 0,-0.10685 -0.11306,-0.34897 -0.25124,-0.53823 -0.299,-0.40954 -0.31767,-0.4165 -2.03661,-0.76017 -0.81884,-0.16371 -0.8674,-0.16469 -0.9421,-0.0189 -0.0957,0.1867 0.0962,0.74363 0.40552,1.17728 l 0.23834,0.33412 h 1.29304 1.29305 z m 13.22823,-0.01 c 0.23123,-0.24445 0.57261,-0.90905 0.57261,-1.11473 0,-0.21112 -0.18606,-0.33779 -0.42369,-0.28843 -0.11206,0.0233 -0.35306,0.0737 -0.53573,0.11211 -0.18266,0.0384 -0.53136,0.1087 -0.77491,0.15639 -0.89668,0.17547 -1.3211,0.42792 -1.51639,0.90196 -0.1729,0.41969 -0.12422,0.43681 1.24196,0.43681 h 1.24313 z m -4.90483,-3.14984 0.0208,-0.86809 -0.24217,-0.0438 c -0.13312,-0.024 -1.50416,-0.0341 -3.04661,-0.0225 l -2.80445,0.0213 -0.0208,0.9098 -0.0208,0.90982 3.04659,-0.0193 3.04658,-0.0193 z m -9.05057,-0.38768 c 0.15039,-0.33187 0.0199,-0.67532 -0.36392,-0.95797 -0.67192,-0.494758 -1.63499,-0.91902 -2.5425,-1.120045 -0.34718,-0.07687 -0.4993,0.157364 -0.4993,0.768951 0,0.830984 0.13779,1.062704 0.71238,1.198614 0.38903,0.0921 1.79039,0.26266 2.29662,0.27968 0.2672,0.008 0.32764,-0.0168 0.39672,-0.16923 z m 13.14134,0.10074 c 1.12335,-0.11708 1.84352,-0.27648 2.01398,-0.44594 0.12097,-0.12035 0.15226,-0.26699 0.17347,-0.81454 0.0334,-0.860175 -0.01,-0.919894 -0.61852,-0.862704 -0.60685,0.05698 -1.756,0.557069 -2.27281,0.989074 -0.11475,0.0959 -0.23212,0.17438 -0.26085,0.17438 -0.0879,0 -0.30544,0.42118 -0.30544,0.5914 0,0.26052 0.13863,0.44745 0.3318,0.44745 0.0985,0 0.52073,-0.0357 0.93837,-0.0791 z m 0.11856,-4.372177 c 0.16026,-0.0013 0.0797,-0.225536 -0.53405,-1.484958 -0.22871,-0.469331 -0.58099,-1.078929 -0.78284,-1.354664 l -0.36698,-0.501343 -5.62739,0.01905 -5.62738,0.01905 -0.34934,0.519416 c -0.42242,0.628071 -1.3112,2.401369 -1.3112,2.616092 0,0.08482 0.0332,0.16529 0.0738,0.178901 0.0514,0.01733 12.48725,0.0071 14.52536,-0.01138 z"
       id="path1065"
       inkscape:export-filename="/home/gilvan/MEGA/TINELLUS/RENE/ONIX/LOGOS/logo_prata2.png"
       inkscape:export-xdpi="114.269"
       inkscape:export-ydpi="114.269" />
    <path
       d="m 52.299204,40.201569 c 0.0824,0.122907 0.53739,0.134416 0.45777,0.534607 l -0.0171,10.777803 -8.151903,8.19056 -10.96113,-0.0658 -8.37652,-8.40496 c 0,0 0.12224,-10.632001 0.12224,-10.632001 0.27013,-0.840504 7.43537,-7.97615 8.26563,-8.187705 12.76382,0.28017 9.45131,-2.304209 18.660923,7.784602 z"
       id="path3944"
       style="fill:url(#linearGradient12100);fill-opacity:1;stroke-width:0.285107"
       inkscape:export-filename="/home/gilvan/MEGA/TINELLUS/RENE/ONIX/LOGOS/logo_prata2.png"
       inkscape:export-xdpi="114.269"
       inkscape:export-ydpi="114.269" />
    <path
       style="fill:#000000;stroke-width:0.0740018"
       d="m 29.538981,52.386809 c -0.22635,-0.0885 -0.29051,-0.28163 -0.28986,-0.87253 l 0.001,-0.59362 0.20149,0.23653 c 0.32208,0.37811 0.52133,0.42632 1.93276,0.46766 l 1.29152,0.0378 0.0225,0.27121 c 0.039,0.46975 -0.092,0.50887 -1.68098,0.50207 -0.75204,-0.003 -1.41717,-0.0253 -1.47805,-0.0492 z m 16.01673,-0.145 c -0.09,-0.11495 -0.14714,-0.28055 -0.13454,-0.38956 l 0.022,-0.18956 1.32843,-0.0371 c 1.43819,-0.0402 1.63552,-0.0898 1.94921,-0.49084 l 0.15413,-0.19701 v 0.60364 c 0,0.91928 0.0362,0.90045 -1.72898,0.90045 h -1.43377 z m -15.66082,-1.2655 c -0.16221,-0.19189 -0.32672,-0.59617 -0.43027,-1.0574 -0.0504,-0.22446 -0.12351,-0.50828 -0.16265,-0.63073 -0.11305,-0.35439 -0.23212,-4.709071 -0.13835,-5.05926 0.0572,-0.213757 0.24036,-0.457266 0.66987,-0.890863 0.3251,-0.328194 0.59109,-0.634635 0.59109,-0.680982 0,-0.05854 -0.29188,-0.08426 -0.95657,-0.08426 h -0.95657 l -0.0827,-0.308628 c -0.0981,-0.366104 -0.0387,-0.772388 0.12195,-0.834353 0.14996,-0.05783 1.09011,-0.05726 1.24055,0.0011 0.0642,0.02471 0.11673,0.108556 0.11673,0.186235 0,0.07758 0.0636,0.195953 0.14138,0.26289 0.15086,0.129871 0.63391,0.319101 0.81931,0.32095 0.0707,0.0011 0.29876,-0.375893 0.61749,-1.019167 0.93649,-1.890165 1.47782,-2.550176 2.2595,-2.754855 0.6217,-0.162803 2.0988,-0.22947 5.10923,-0.23065 3.00696,-0.0013 5.00012,0.08085 5.55506,0.228774 0.79456,0.211712 1.24397,0.767445 2.28932,2.830928 0.53046,1.047102 0.52909,1.04612 1.10286,0.798833 0.25092,-0.10813 0.36231,-0.206796 0.4194,-0.371462 0.0934,-0.269526 0.23161,-0.312293 0.91324,-0.282739 l 0.51508,0.0223 0.0828,0.257633 c 0.0618,0.192246 0.061,0.33351 -0.003,0.556517 l -0.0859,0.298894 -0.8825,0.01947 c -0.48537,0.01138 -0.92809,0.03637 -0.9838,0.05683 -0.0675,0.02487 0.0945,0.242459 0.48649,0.652909 0.83751,0.877134 0.82886,0.839695 0.75005,3.245506 -0.0882,2.69289 -0.30553,3.93548 -0.78066,4.46333 -0.11305,0.12575 -0.57834,0.13243 -9.17384,0.13243 -8.53249,0 -9.06101,-0.007 -9.16444,-0.12987 z m 13.66634,-0.41527 c 0,-0.055 -0.0523,-0.20521 -0.11617,-0.33392 l -0.11616,-0.234 h -4.25829 -4.25829 l -0.13567,0.25338 c -0.0746,0.13939 -0.11348,0.28964 -0.0862,0.33392 0.0348,0.0564 1.3827,0.0806 4.51013,0.0806 3.68957,0 4.46062,-0.0173 4.46062,-0.0999 z m -9.74177,-0.39102 c 0,-0.10685 -0.11306,-0.34897 -0.25124,-0.53823 -0.299,-0.40954 -0.31767,-0.4165 -2.03661,-0.76017 -0.81884,-0.16371 -0.8674,-0.16469 -0.9421,-0.0189 -0.0957,0.1867 0.0962,0.74363 0.40552,1.17728 l 0.23834,0.33412 h 1.29304 1.29305 z m 13.22823,-0.01 c 0.23123,-0.24445 0.57261,-0.90905 0.57261,-1.11473 0,-0.21112 -0.18606,-0.33779 -0.42369,-0.28843 -0.11206,0.0233 -0.35306,0.0737 -0.53573,0.11211 -0.18266,0.0384 -0.53136,0.1087 -0.77491,0.15639 -0.89668,0.17547 -1.3211,0.42792 -1.51639,0.90196 -0.1729,0.41969 -0.12422,0.43681 1.24196,0.43681 h 1.24313 z m -4.90483,-3.14984 0.0208,-0.86809 -0.24217,-0.0438 c -0.13312,-0.024 -1.50416,-0.0341 -3.04661,-0.0225 l -2.80445,0.0213 -0.0208,0.9098 -0.0208,0.90982 3.04659,-0.0193 3.04658,-0.0193 z m -9.05057,-0.38768 c 0.15039,-0.33187 0.0199,-0.67532 -0.36392,-0.95797 -0.67192,-0.494758 -1.63499,-0.91902 -2.5425,-1.120045 -0.34718,-0.07687 -0.4993,0.157364 -0.4993,0.768951 0,0.830984 0.13779,1.062704 0.71238,1.198614 0.38903,0.0921 1.79039,0.26266 2.29662,0.27968 0.2672,0.008 0.32764,-0.0168 0.39672,-0.16923 z m 13.14134,0.10074 c 1.12335,-0.11708 1.84352,-0.27648 2.01398,-0.44594 0.12097,-0.12035 0.15226,-0.26699 0.17347,-0.81454 0.0334,-0.860175 -0.01,-0.919894 -0.61852,-0.862704 -0.60685,0.05698 -1.756,0.557069 -2.27281,0.989074 -0.11475,0.0959 -0.23212,0.17438 -0.26085,0.17438 -0.0879,0 -0.30544,0.42118 -0.30544,0.5914 0,0.26052 0.13863,0.44745 0.3318,0.44745 0.0985,0 0.52073,-0.0357 0.93837,-0.0791 z m 0.11856,-4.372177 c 0.16026,-0.0013 0.0797,-0.225536 -0.53405,-1.484958 -0.22871,-0.469331 -0.58099,-1.078929 -0.78284,-1.354664 l -0.36698,-0.501343 -5.62739,0.01905 -5.62738,0.01905 -0.34934,0.519416 c -0.42242,0.628071 -1.3112,2.401369 -1.3112,2.616092 0,0.08482 0.0332,0.16529 0.0738,0.178901 0.0514,0.01733 12.48725,0.0071 14.52536,-0.01138 z"
       id="path3946"
       inkscape:export-filename="/home/gilvan/MEGA/TINELLUS/RENE/ONIX/LOGOS/logo_prata2.png"
       inkscape:export-xdpi="114.269"
       inkscape:export-ydpi="114.269" />
    <path
       id="path2683-4-0-9"
       style="fill:#ff7f2a;stroke:#ff7f2a;stroke-width:0.0988081;stroke-opacity:1"
       d="m 118.09202,61.809099 c -0.2872,0.002 -0.5823,0.0227 -0.88549,0.0638 -1.10703,0.15004 -2.13872,0.47101 -3.0469,1.10523 -5.02397,3.50855 -1.84391,11.546381 4.46868,10.732661 1.02567,-0.13218 1.98992,-0.42416 2.84355,-0.98968 4.89708,-3.24444 2.45972,-10.955241 -3.37984,-10.911991 z m 0.0175,2.1283 c 4.55753,0.0937 5.26341,7.001461 0.31551,7.670581 -5.19399,0.70241 -6.25438,-6.987481 -1.01549,-7.633451 0.24254,-0.0299 0.47583,-0.0418 0.69998,-0.0371 z"
       inkscape:export-filename="/home/gilvan/MEGA/TINELLUS/RENE/ONIX/LOGOS/logo_prata2.png"
       inkscape:export-xdpi="114.269"
       inkscape:export-ydpi="114.269" />
    <path
       id="path2683-4-8-8-8"
       style="fill:#ff7f2a;stroke:#ff7f2a;stroke-width:0.0988081;stroke-opacity:1"
       d="m 146.05862,61.809099 c -0.2872,0.002 -0.5823,0.0227 -0.88549,0.0638 -1.10703,0.15004 -2.13872,0.47101 -3.0469,1.10523 -5.02397,3.50855 -1.84391,11.546381 4.46868,10.732661 1.02567,-0.13218 1.98992,-0.42416 2.84355,-0.98968 4.89708,-3.24444 2.45972,-10.955241 -3.37984,-10.911991 z m 0.0175,2.1283 c 4.55753,0.0937 5.26341,7.001461 0.31551,7.670581 -5.19399,0.70241 -6.25438,-6.987481 -1.01549,-7.633451 0.24254,-0.0299 0.47583,-0.0418 0.69998,-0.0371 z"
       inkscape:export-filename="/home/gilvan/MEGA/TINELLUS/RENE/ONIX/LOGOS/logo_prata2.png"
       inkscape:export-xdpi="114.269"
       inkscape:export-ydpi="114.269" />
    <path
       style="fill:#ff7f2a;fill-opacity:0.998573;stroke:#ff7f2a;stroke-width:0.195428;stroke-miterlimit:4;stroke-dasharray:none;stroke-opacity:1"
       d="m 74.989534,74.01606 3.85328,-7.442031 3.8602,7.442031 h 2.83721 l -6.78607,-11.878921 -6.37016,11.878921 z"
       id="path4132-8-4"
       inkscape:export-filename="/home/gilvan/MEGA/TINELLUS/RENE/ONIX/LOGOS/logo_prata2.png"
       inkscape:export-xdpi="114.269"
       inkscape:export-ydpi="114.269" />
    <g
       aria-label="U"
       transform="matrix(0.65726325,0,0,0.45849455,-134.41019,-205.06738)"
       id="text5516-5-8"
       style="font-size:34.3398px;line-height:1.25;fill:#ff7f2a;stroke:#ff7f2a;stroke-width:0.858495;stroke-opacity:1"
       inkscape:export-filename="/home/gilvan/MEGA/TINELLUS/RENE/ONIX/LOGOS/logo_prata2.png"
       inkscape:export-xdpi="114.269"
       inkscape:export-ydpi="114.269">
      <path
         d="m 333.29363,582.32174 h 3.4038 l 0.17072,13.97115 c 1.29161,11.47361 12.30924,8.64487 12.35764,0 l -0.17072,-13.97115 h 3.40379 l -0.0256,13.93275 c -1.78872,18.1174 -19,14.2909 -18.97484,0.16301 z"
         id="path7512-0-1"
         sodipodi:nodetypes="ccccccccc"
         style="fill:#ff7f2a;stroke:#ff7f2a;stroke-width:0.458;stroke-miterlimit:4;stroke-dasharray:none;stroke-opacity:1" />
    </g>
    <path
       style="fill:#ff7f2a;fill-opacity:0.998573;stroke:#ff7f2a;stroke-width:0.251421;stroke-miterlimit:4;stroke-dasharray:none;stroke-opacity:1"
       d="m 99.166932,61.809099 h 12.378098 l -0.0252,2.3477 -5.13885,-0.0439 0.0139,9.903131 h -2.29258 l -0.0245,-9.797691 -4.944808,-0.14315 z"
       id="path10490-9-0"
       sodipodi:nodetypes="ccccccccc"
       inkscape:export-filename="/home/gilvan/MEGA/TINELLUS/RENE/ONIX/LOGOS/logo_prata2.png"
       inkscape:export-xdpi="114.269"
       inkscape:export-ydpi="114.269" />
    <path
       style="fill:#ff7f2a;fill-opacity:0.998573;stroke:#ff7f2a;stroke-width:0.251421;stroke-miterlimit:4;stroke-dasharray:none;stroke-opacity:1"
       d="m 152.12733,61.641579 h 12.37811 l -0.0252,2.3477 -5.13884,-0.0439 0.0139,9.903141 h -2.29259 l -0.0245,-9.797691 -4.94482,-0.14316 z"
       id="path10490-1-6-3"
       sodipodi:nodetypes="ccccccccc"
       inkscape:export-filename="/home/gilvan/MEGA/TINELLUS/RENE/ONIX/LOGOS/logo_prata2.png"
       inkscape:export-xdpi="114.269"
       inkscape:export-ydpi="114.269" />
    <path
       style="fill:#ff7f2a;fill-opacity:0.998573;stroke:#ff7f2a;stroke-width:0.250163;stroke-miterlimit:4;stroke-dasharray:none;stroke-opacity:1"
       d="m 127.86269,73.86999 h -2.30981 V 61.796109 l 6.33108,4.68471 6.48471,-4.68471 V 73.86999 h -2.29512 l -0.0284,-7.501381 -4.14837,2.894941 -4.02387,-3.056091 z"
       id="path10726-3-0"
       inkscape:export-filename="/home/gilvan/MEGA/TINELLUS/RENE/ONIX/LOGOS/logo_prata2.png"
       inkscape:export-xdpi="114.269"
       inkscape:export-ydpi="114.269" />
    <g
       aria-label="I"
       id="text13262-8-4"
       style="font-size:40px;line-height:1.25;fill:#ff7f2a;stroke:#ff7f2a;stroke-opacity:1"
       transform="matrix(0.56425729,0,0,0.41809767,-128.68015,-150.62269)"
       inkscape:export-filename="/home/gilvan/MEGA/TINELLUS/RENE/ONIX/LOGOS/logo_prata2.png"
       inkscape:export-xdpi="114.269"
       inkscape:export-ydpi="114.269">
      <path
         d="m 523.17651,508.09131 h 3.94532 v 29.16015 h -3.94532 z"
         id="path14820-5-4"
         style="fill:#ff7f2a;stroke:#ff7f2a;stroke-opacity:1" />
    </g>
    <path
       style="fill:#ff7f2a;fill-opacity:0.998573;stroke:#ff7f2a;stroke-width:0.251421;stroke-miterlimit:4;stroke-dasharray:none;stroke-opacity:1"
       d="m 169.85915,61.809099 h 2.39166 l 3.94078,7.221591 4.08093,-7.221591 h 2.36847 l -6.40785,11.820771 z"
       id="path14892-6-4"
       inkscape:export-filename="/home/gilvan/MEGA/TINELLUS/RENE/ONIX/LOGOS/logo_prata2.png"
       inkscape:export-xdpi="114.269"
       inkscape:export-ydpi="114.269" />
    <path
       style="fill:#ff7f2a;fill-opacity:0.998573;stroke:#ff7f2a;stroke-width:0.251421;stroke-miterlimit:4;stroke-dasharray:none;stroke-opacity:1"
       d="m 195.4291,61.998989 v 1.98455 h -9.26411 c -0.75424,0 -1.00371,0.62138 -1.00371,0.62138 l 0.0534,1.58206 h 7.45762 c 0.28272,0.57121 0.37058,1.2404 0.0471,2.116461 h -7.50828 l -0.0189,2.67625 c 0,0 -0.22642,0.94781 0.87499,0.94781 h 9.36193 v 1.9715 h -9.45062 c -1.82172,0 -2.95249,-1.49986 -2.8641,-2.27719 l -0.0446,-7.638271 c 0.70832,-1.18354 1.60401,-1.86594 2.71049,-1.98455 z"
       id="path15019-1-4"
       sodipodi:nodetypes="ccccccccccccccccc"
       inkscape:export-filename="/home/gilvan/MEGA/TINELLUS/RENE/ONIX/LOGOS/logo_prata2.png"
       inkscape:export-xdpi="114.269"
       inkscape:export-ydpi="114.269" />
    <text
       xml:space="preserve"
       style="font-style:normal;font-variant:normal;font-weight:normal;font-stretch:normal;font-size:25.1251px;line-height:1.25;font-family:Dhurjati;-inkscape-font-specification:'Dhurjati, Normal';font-variant-ligatures:normal;font-variant-caps:normal;font-variant-numeric:normal;font-variant-east-asian:normal;fill:#ececec;fill-opacity:1;stroke:none;stroke-width:0.628129"
       x="92.626953"
       y="28.352974"
       id="text3718"
       transform="scale(0.92123429,1.0855002)"
       inkscape:export-filename="/home/gilvan/MEGA/TINELLUS/RENE/ONIX/LOGOS/logo_prata2.png"
       inkscape:export-xdpi="114.269"
       inkscape:export-ydpi="114.269"><tspan
         sodipodi:role="line"
         id="tspan3716"
         x="92.626953"
         y="28.352974"
         style="font-style:normal;font-variant:normal;font-weight:normal;font-stretch:normal;font-size:25.1251px;font-family:Dhurjati;-inkscape-font-specification:'Dhurjati, Normal';font-variant-ligatures:normal;font-variant-caps:normal;font-variant-numeric:normal;font-variant-east-asian:normal;fill:#ececec;stroke-width:0.628129">^</tspan></text>
  </g>
</svg>
